# xmcd
# 
# Track frame offsets:
#     150
#     16167
#     33032
#     49257
#     62167
#     79542
#     94972
#     112865
#     132382
#     145930
#     164300
# 
# Disc length: 2353
# 
# Revision: 1
# Processed by: cddbd v1.5.2PL0 Copyright (c) Steve Scherf et al.
# Submitted via: fre:ac v1.0.17
# 
DISCID=87092f0b
DTITLE=POISON - Open Up and Say... Ahh! (38DP_5024)
DYEAR=1988
DGENRE=Hard Rock
TTITLE0=LOVE ON THE ROCKS
TTITLE1=NOTHIN' BUT A GOOD TIME
TTITLE2=BACK TO THE ROCKING HORSE
TTITLE3=GOOD LOVE
TTITLE4=TEARIN' DOWN THE WALLS
TTITLE5=LOOK BUT YOU CAN'T TOUCH
TTITLE6=FALLEN ANGEL
TTITLE7=EVERY ROSE HAS ITS THORN
TTITLE8=YOUR MAMA DON'T DANCE
TTITLE9=BAD TO BE GOOD
TTITLE10=LIVIN' FOR THE MINUTE (EXTRA TRACK)
EXTD=YEAR: 1988
EXTT0=
EXTT1=
EXTT2=
EXTT3=
EXTT4=
EXTT5=
EXTT6=
EXTT7=
EXTT8=
EXTT9=
EXTT10=
PLAYORDER=
